<svg width="212" height="48" viewBox="0 0 212 48" fill="none" xmlns="http://www.w3.org/2000/svg">
<path fill-rule="evenodd" clip-rule="evenodd" d="M8 14C6.89543 14 6 14.8954 6 16V36C6 37.1046 6.89543 38 8 38H40C41.1046 38 42 37.1046 42 36V16C42 14.8954 41.1046 14 40 14H8ZM16 26C16 30.4183 19.5817 34 24 34C28.4183 34 32 30.4183 32 26C32 21.5817 28.4183 18 24 18C19.5817 18 16 21.5817 16 26Z" fill="url(#paint0_linear_493_200)"/>
<rect opacity="0.3" x="18" y="8" width="12" height="4" rx="1.5" fill="url(#paint1_linear_493_200)"/>
<path opacity="0.3" fill-rule="evenodd" clip-rule="evenodd" d="M24 30C26.2091 30 28 28.2091 28 26C28 23.7909 26.2091 22 24 22C21.7909 22 20 23.7909 20 26C20 28.2091 21.7909 30 24 30Z" fill="url(#paint2_linear_493_200)"/>
<path d="M50.5696 37V17.3636H54.392V37H50.5696ZM52.5 14.3338C51.8352 14.3338 51.2642 14.1122 50.7869 13.669C50.3182 13.2173 50.0838 12.6804 50.0838 12.0582C50.0838 11.4276 50.3182 10.8906 50.7869 10.4474C51.2642 9.99574 51.8352 9.76989 52.5 9.76989C53.1648 9.76989 53.7315 9.99574 54.2003 10.4474C54.6776 10.8906 54.9162 11.4276 54.9162 12.0582C54.9162 12.6804 54.6776 13.2173 54.2003 13.669C53.7315 14.1122 53.1648 14.3338 52.5 14.3338ZM61.6369 25.3409V37H57.8144V17.3636H61.4835V20.5597H61.7264C62.1781 19.5199 62.8855 18.6847 63.8485 18.054C64.8201 17.4233 66.0431 17.108 67.5176 17.108C68.8556 17.108 70.0275 17.3892 71.0332 17.9517C72.0389 18.5057 72.8187 19.3324 73.3727 20.4318C73.9267 21.5312 74.2037 22.8906 74.2037 24.5099V37H70.3812V24.9702C70.3812 23.5469 70.0105 22.4347 69.269 21.6335C68.5275 20.8239 67.509 20.419 66.2136 20.419C65.3272 20.419 64.5389 20.6108 63.8485 20.9943C63.1667 21.3778 62.6255 21.9403 62.225 22.6818C61.8329 23.4148 61.6369 24.3011 61.6369 25.3409ZM92.3246 22.1577L88.8601 22.7713C88.7152 22.3281 88.4851 21.9062 88.1697 21.5057C87.8629 21.1051 87.4453 20.777 86.9169 20.5213C86.3885 20.2656 85.728 20.1378 84.9354 20.1378C83.853 20.1378 82.9496 20.3807 82.2251 20.8665C81.5007 21.3437 81.1385 21.9616 81.1385 22.7202C81.1385 23.3764 81.3814 23.9048 81.8672 24.3054C82.353 24.706 83.1371 25.0341 84.2194 25.2898L87.3388 26.0057C89.1456 26.4233 90.4922 27.0668 91.3785 27.9361C92.2649 28.8054 92.7081 29.9347 92.7081 31.3239C92.7081 32.5 92.3672 33.5483 91.6854 34.4688C91.0121 35.3807 90.0703 36.0966 88.8601 36.6165C87.6584 37.1364 86.2649 37.3963 84.6797 37.3963C82.4808 37.3963 80.6868 36.9276 79.2976 35.9901C77.9084 35.044 77.0561 33.7017 76.7408 31.9631L80.4354 31.4006C80.6655 32.3636 81.1385 33.0923 81.8544 33.5866C82.5703 34.0724 83.5035 34.3153 84.6541 34.3153C85.9069 34.3153 86.9084 34.0554 87.6584 33.5355C88.4084 33.0071 88.7834 32.3636 88.7834 31.6051C88.7834 30.9915 88.5533 30.4759 88.093 30.0582C87.6413 29.6406 86.9467 29.3253 86.0092 29.1122L82.6854 28.3835C80.853 27.9659 79.4979 27.3011 78.62 26.3892C77.7507 25.4773 77.316 24.3224 77.316 22.9247C77.316 21.7656 77.6399 20.7514 78.2876 19.8821C78.9354 19.0128 79.8302 18.3352 80.9723 17.8494C82.1143 17.3551 83.4226 17.108 84.897 17.108C87.0192 17.108 88.6896 17.5682 89.9084 18.4886C91.1271 19.4006 91.9325 20.6236 92.3246 22.1577ZM104.357 17.3636V20.4318H93.6312V17.3636H104.357ZM96.5076 12.6591H100.33V31.2344C100.33 31.9759 100.441 32.5341 100.662 32.9091C100.884 33.2756 101.17 33.527 101.519 33.6634C101.877 33.7912 102.265 33.8551 102.682 33.8551C102.989 33.8551 103.258 33.8338 103.488 33.7912C103.718 33.7486 103.897 33.7145 104.025 33.6889L104.715 36.8466C104.493 36.9318 104.178 37.017 103.769 37.1023C103.36 37.196 102.849 37.2472 102.235 37.2557C101.229 37.2727 100.292 37.0938 99.4224 36.7188C98.5531 36.3438 97.8499 35.7642 97.313 34.9801C96.7761 34.196 96.5076 33.2116 96.5076 32.027V12.6591ZM112.58 37.4347C111.336 37.4347 110.211 37.2045 109.205 36.7443C108.199 36.2756 107.402 35.598 106.814 34.7116C106.235 33.8253 105.945 32.7386 105.945 31.4517C105.945 30.3437 106.158 29.4318 106.584 28.7159C107.01 28 107.586 27.4332 108.31 27.0156C109.034 26.598 109.844 26.2827 110.739 26.0696C111.634 25.8565 112.546 25.6946 113.475 25.5838C114.651 25.4474 115.605 25.3366 116.338 25.2514C117.071 25.1577 117.604 25.0085 117.936 24.804C118.269 24.5994 118.435 24.267 118.435 23.8068V23.7173C118.435 22.6009 118.12 21.7358 117.489 21.1222C116.867 20.5085 115.938 20.2017 114.702 20.2017C113.415 20.2017 112.401 20.4872 111.659 21.0582C110.926 21.6207 110.419 22.2472 110.138 22.9375L106.546 22.1193C106.972 20.9261 107.594 19.9631 108.412 19.2301C109.239 18.4886 110.189 17.9517 111.263 17.6193C112.337 17.2784 113.466 17.108 114.651 17.108C115.435 17.108 116.266 17.2017 117.144 17.3892C118.03 17.5682 118.857 17.9006 119.624 18.3864C120.399 18.8722 121.034 19.5668 121.529 20.4702C122.023 21.3651 122.27 22.5284 122.27 23.9602V37H118.537V34.3153H118.384C118.137 34.8097 117.766 35.2955 117.272 35.7727C116.777 36.25 116.142 36.6463 115.367 36.9616C114.591 37.277 113.662 37.4347 112.58 37.4347ZM113.411 34.3665C114.468 34.3665 115.371 34.1577 116.121 33.7401C116.88 33.3224 117.455 32.777 117.847 32.1037C118.247 31.4219 118.448 30.6932 118.448 29.9176V27.3864C118.311 27.5227 118.047 27.6506 117.655 27.7699C117.272 27.8807 116.833 27.9787 116.338 28.0639C115.844 28.1406 115.363 28.2131 114.894 28.2812C114.425 28.3409 114.033 28.392 113.718 28.4347C112.976 28.5284 112.299 28.6861 111.685 28.9077C111.08 29.1293 110.594 29.4489 110.228 29.8665C109.87 30.2756 109.691 30.821 109.691 31.5028C109.691 32.4489 110.04 33.1648 110.739 33.6506C111.438 34.1278 112.328 34.3665 113.411 34.3665ZM140.356 22.1577L136.891 22.7713C136.747 22.3281 136.516 21.9062 136.201 21.5057C135.894 21.1051 135.477 20.777 134.948 20.5213C134.42 20.2656 133.759 20.1378 132.967 20.1378C131.884 20.1378 130.981 20.3807 130.257 20.8665C129.532 21.3437 129.17 21.9616 129.17 22.7202C129.17 23.3764 129.413 23.9048 129.899 24.3054C130.384 24.706 131.168 25.0341 132.251 25.2898L135.37 26.0057C137.177 26.4233 138.524 27.0668 139.41 27.9361C140.296 28.8054 140.739 29.9347 140.739 31.3239C140.739 32.5 140.399 33.5483 139.717 34.4688C139.043 35.3807 138.102 36.0966 136.891 36.6165C135.69 37.1364 134.296 37.3963 132.711 37.3963C130.512 37.3963 128.718 36.9276 127.329 35.9901C125.94 35.044 125.087 33.7017 124.772 31.9631L128.467 31.4006C128.697 32.3636 129.17 33.0923 129.886 33.5866C130.602 34.0724 131.535 34.3153 132.686 34.3153C133.938 34.3153 134.94 34.0554 135.69 33.5355C136.44 33.0071 136.815 32.3636 136.815 31.6051C136.815 30.9915 136.585 30.4759 136.124 30.0582C135.673 29.6406 134.978 29.3253 134.041 29.1122L130.717 28.3835C128.884 27.9659 127.529 27.3011 126.651 26.3892C125.782 25.4773 125.347 24.3224 125.347 22.9247C125.347 21.7656 125.671 20.7514 126.319 19.8821C126.967 19.0128 127.862 18.3352 129.004 17.8494C130.146 17.3551 131.454 17.108 132.928 17.108C135.051 17.108 136.721 17.5682 137.94 18.4886C139.159 19.4006 139.964 20.6236 140.356 22.1577ZM147.045 25.3409V37H143.222V10.8182H146.994V20.5597H147.236C147.697 19.5028 148.4 18.6634 149.346 18.0412C150.292 17.419 151.528 17.108 153.053 17.108C154.4 17.108 155.576 17.3849 156.582 17.9389C157.596 18.4929 158.38 19.3196 158.934 20.419C159.496 21.5099 159.778 22.8736 159.778 24.5099V37H155.955V24.9702C155.955 23.5298 155.584 22.4134 154.843 21.6207C154.102 20.8196 153.07 20.419 151.749 20.419C150.846 20.419 150.036 20.6108 149.32 20.9943C148.613 21.3778 148.055 21.9403 147.646 22.6818C147.245 23.4148 147.045 24.3011 147.045 25.3409ZM168.873 37.4347C167.629 37.4347 166.504 37.2045 165.498 36.7443C164.492 36.2756 163.695 35.598 163.107 34.7116C162.528 33.8253 162.238 32.7386 162.238 31.4517C162.238 30.3437 162.451 29.4318 162.877 28.7159C163.303 28 163.879 27.4332 164.603 27.0156C165.328 26.598 166.137 26.2827 167.032 26.0696C167.927 25.8565 168.839 25.6946 169.768 25.5838C170.944 25.4474 171.899 25.3366 172.632 25.2514C173.364 25.1577 173.897 25.0085 174.23 24.804C174.562 24.5994 174.728 24.267 174.728 23.8068V23.7173C174.728 22.6009 174.413 21.7358 173.782 21.1222C173.16 20.5085 172.231 20.2017 170.995 20.2017C169.708 20.2017 168.694 20.4872 167.953 21.0582C167.22 21.6207 166.712 22.2472 166.431 22.9375L162.839 22.1193C163.265 20.9261 163.887 19.9631 164.705 19.2301C165.532 18.4886 166.482 17.9517 167.556 17.6193C168.63 17.2784 169.759 17.108 170.944 17.108C171.728 17.108 172.559 17.2017 173.437 17.3892C174.323 17.5682 175.15 17.9006 175.917 18.3864C176.693 18.8722 177.328 19.5668 177.822 20.4702C178.316 21.3651 178.563 22.5284 178.563 23.9602V37H174.83V34.3153H174.677C174.43 34.8097 174.059 35.2955 173.565 35.7727C173.07 36.25 172.435 36.6463 171.66 36.9616C170.884 37.277 169.955 37.4347 168.873 37.4347ZM169.704 34.3665C170.761 34.3665 171.664 34.1577 172.414 33.7401C173.173 33.3224 173.748 32.777 174.14 32.1037C174.541 31.4219 174.741 30.6932 174.741 29.9176V27.3864C174.605 27.5227 174.34 27.6506 173.948 27.7699C173.565 27.8807 173.126 27.9787 172.632 28.0639C172.137 28.1406 171.656 28.2131 171.187 28.2812C170.718 28.3409 170.326 28.392 170.011 28.4347C169.269 28.5284 168.592 28.6861 167.978 28.9077C167.373 29.1293 166.887 29.4489 166.521 29.8665C166.163 30.2756 165.984 30.821 165.984 31.5028C165.984 32.4489 166.333 33.1648 167.032 33.6506C167.731 34.1278 168.622 34.3665 169.704 34.3665ZM181.935 37V17.3636H185.629V20.483H185.834C186.192 19.4261 186.822 18.5952 187.726 17.9901C188.638 17.3764 189.669 17.0696 190.82 17.0696C191.058 17.0696 191.339 17.0781 191.663 17.0952C191.996 17.1122 192.256 17.1335 192.443 17.1591V20.8153C192.29 20.7727 192.017 20.7259 191.625 20.6747C191.233 20.6151 190.841 20.5852 190.449 20.5852C189.545 20.5852 188.74 20.777 188.033 21.1605C187.334 21.5355 186.78 22.0597 186.371 22.733C185.962 23.3977 185.757 24.1562 185.757 25.0085V37H181.935ZM201.791 37.3963C199.856 37.3963 198.19 36.983 196.792 36.1562C195.403 35.321 194.329 34.1491 193.571 32.6406C192.821 31.1236 192.446 29.3466 192.446 27.3097C192.446 25.2983 192.821 23.5256 193.571 21.9915C194.329 20.4574 195.386 19.2599 196.741 18.3991C198.105 17.5384 199.699 17.108 201.522 17.108C202.63 17.108 203.704 17.2912 204.744 17.6577C205.784 18.0241 206.717 18.5994 207.544 19.3835C208.37 20.1676 209.022 21.1861 209.5 22.4389C209.977 23.6832 210.216 25.196 210.216 26.9773V28.3324H194.606V25.4688H206.47C206.47 24.4631 206.265 23.5724 205.856 22.7969C205.447 22.0128 204.872 21.3949 204.13 20.9432C203.397 20.4915 202.537 20.2656 201.548 20.2656C200.474 20.2656 199.537 20.5298 198.736 21.0582C197.943 21.5781 197.329 22.2599 196.895 23.1037C196.468 23.9389 196.255 24.8466 196.255 25.8267V28.0639C196.255 29.3764 196.486 30.4929 196.946 31.4134C197.415 32.3338 198.067 33.0369 198.902 33.5227C199.737 34 200.713 34.2386 201.829 34.2386C202.554 34.2386 203.214 34.1364 203.811 33.9318C204.407 33.7187 204.923 33.4034 205.358 32.9858C205.792 32.5682 206.125 32.0526 206.355 31.4389L209.973 32.0909C209.683 33.1562 209.163 34.0895 208.413 34.8906C207.672 35.6832 206.738 36.3011 205.613 36.7443C204.497 37.179 203.223 37.3963 201.791 37.3963Z" fill="url(#paint3_linear_493_200)"/>
<defs>
<linearGradient id="paint0_linear_493_200" x1="24" y1="14" x2="24" y2="38" gradientUnits="userSpaceOnUse">
<stop offset="0.9999" stop-color="#1D1D1D"/>
<stop offset="1" stop-color="#1D1D1D" stop-opacity="0"/>
</linearGradient>
<linearGradient id="paint1_linear_493_200" x1="24" y1="8" x2="24" y2="12" gradientUnits="userSpaceOnUse">
<stop offset="0.9999" stop-color="#1D1D1D"/>
<stop offset="1" stop-color="#1D1D1D" stop-opacity="0"/>
</linearGradient>
<linearGradient id="paint2_linear_493_200" x1="24" y1="22" x2="24" y2="30" gradientUnits="userSpaceOnUse">
<stop offset="0.9999" stop-color="#1D1D1D"/>
<stop offset="1" stop-color="#1D1D1D" stop-opacity="0"/>
</linearGradient>
<linearGradient id="paint3_linear_493_200" x1="130" y1="2" x2="130" y2="46" gradientUnits="userSpaceOnUse">
<stop offset="0.583333" stop-color="#1D1D1D"/>
<stop offset="1" stop-color="#1D1D1D" stop-opacity="0"/>
</linearGradient>
</defs>
</svg>
